<svg width="243" height="243" viewBox="0 0 243 243" fill="none" xmlns="http://www.w3.org/2000/svg">
<path opacity="0.3" fill-rule="evenodd" clip-rule="evenodd" d="M202.37 182.312H222.59V202.531H202.37V182.312ZM222.59 202.531H242.84V222.75H222.59V202.531ZM222.59 162.063H242.84V182.312H222.59V162.063ZM222.59 182.312H242.84V202.531H222.59V182.312ZM20.25 0.156H40.469V20.406H20.25V0.156ZM60.69 0.156H80.9399V20.406H60.69V0.156ZM40.469 0.156H60.69V20.406H40.469V0.156ZM40.469 20.406H60.69V40.625H40.469V20.406ZM141.69 101.313H161.87V121.562H141.69V101.313ZM121.44 81.125H141.69V101.313H121.44V81.125ZM101.22 60.875H121.44V81.125H101.22V60.875ZM80.9399 40.625H101.22V60.875H80.9399V40.625ZM182.09 141.781H202.37V162.063H182.09V141.781ZM161.87 121.562H182.09V141.781H161.87V121.562ZM182.09 182.312H202.37V202.531H182.09V182.312ZM161.87 162.063H182.09V182.312H161.87V162.063ZM141.69 141.781H161.87V162.063H141.69V141.781ZM121.44 121.562H141.69V141.781H121.44V121.562ZM222.59 222.75H242.84V243H222.59V222.75ZM202.37 202.531H222.59V222.75H202.37V202.531ZM60.69 60.875H80.9399V81.125H60.69V60.875ZM40.469 40.625H60.69V60.875H40.469V40.625ZM20.25 20.406H40.469V40.625H20.25V20.406ZM0 0.156H20.25V20.406H0V0.156ZM101.22 101.313H121.44V121.562H101.22V101.313ZM80.9399 81.125H101.22V101.313H80.9399V81.125ZM243 83.119L228.69 68.809L214.38 83.119L228.69 97.43L243 83.119ZM242.86 0.143H222.62V20.381H242.86V0.143ZM163.25 75.7V44.881L207.78 0.152V30.635L163.25 75.7ZM167.3 79.747H198.12L242.85 35.223H212.36L167.3 79.747ZM167.3 86.493H198.12L242.85 131.017H212.36L167.3 86.493ZM156.51 75.7V44.881L111.98 0.152V30.635L156.51 75.7ZM174.19 14.311L159.88 0L145.57 14.31L159.88 28.621L174.19 14.311Z" fill="#33AADC"/>
</svg>
