<svg width="744" height="40" viewBox="0 0 744 40" fill="none" xmlns="http://www.w3.org/2000/svg">
<path fill-rule="evenodd" clip-rule="evenodd" d="M47 22V18H697V22H47ZM37.665 11.771L40.005 14.11L14.11 40.005L11.771 37.665L37.665 11.771ZM11.779 25.881L14.119 28.22L8.21899 34.12L5.879 31.78L11.779 25.881ZM31.779 5.88101L34.119 8.22101L28.219 14.121L25.88 11.782L31.779 5.88101ZM22.364 22.362L17.654 22.346L17.638 17.636L22.348 17.652L22.364 22.362ZM25.89 0L28.229 2.34L2.33501 28.234L0 25.89L25.89 0ZM28.219 37.613L25.862 39.97L0.0350037 14.143L2.392 11.786L28.219 37.613ZM34.109 31.79L31.785 34.114L25.9 28.22L28.223 25.897L34.109 31.79ZM14.1 11.78L11.78 14.1L5.89101 8.21201L8.215 5.888L14.1 11.78ZM39.928 25.829L37.571 28.186L11.811 2.42599L14.168 0.0690002L39.928 25.829ZM48.078 19.994L45.941 22.131L36.859 13.049L39 10.913L48.078 19.994ZM39.078 28.987L36.992 26.901L45.949 17.862L48.087 20L39.078 28.987ZM706.333 11.771L704 14.11L729.895 40.005L732.234 37.665L706.333 11.771ZM732.218 25.881L729.879 28.22L735.779 34.12L738.119 31.78L732.218 25.881ZM712.218 5.88101L709.878 8.22101L715.778 14.121L718.118 11.782L712.218 5.88101ZM721.633 22.362L726.343 22.346L726.359 17.636L721.649 17.652L721.633 22.362ZM718.11 0L715.771 2.34L741.665 28.234L744.005 25.895L718.11 0ZM715.781 37.613L718.138 39.97L743.965 14.143L741.608 11.786L715.781 37.613ZM709.891 31.79L712.215 34.114L718.103 28.225L715.78 25.9L709.891 31.79ZM729.9 11.78L732.223 14.103L738.112 8.215L735.788 5.89099L729.9 11.78ZM704.072 25.829L706.429 28.186L732.189 2.42599L729.832 0.0690002L704.072 25.829ZM695.922 19.994L698.059 22.131L707.141 13.049L705 10.913L695.922 19.994ZM704.922 28.987L707.008 26.901L698.051 17.862L695.913 20L704.922 28.987Z" fill="#5B9CCC"/>
</svg>
