<svg fill="none" xmlns="http://www.w3.org/2000/svg" viewBox="0 0 292 292"><path fill="#FC0909" d="M0 0h292v292H0z"/><path d="M196.925 69.784H95.542v94.024h101.383V69.784ZM42.237 96.812l51.23-28.902 7.071-27.166-58.3 56.068ZM186.749 244.673H106.12l-10.544-78.148H196.92l-10.171 78.148ZM196.92 67.91H95.576L103.391 40h86.087l7.442 27.91ZM36.903 180.79l56.812-16.994V69.771L42.361 99.168l-5.458 81.621ZM250.383 96.812l-51.23-28.902-7.07-27.166 58.3 56.068ZM255.965 180.79l-56.812-16.994V69.771l51.354 29.398 5.458 81.621ZM199.153 166.525l55.324 16.87-65.123 61.278 9.799-78.148ZM93.22 166.525l-55.325 16.87 65.124 61.278-9.8-78.148Z" fill="#fff" fill-opacity=".6"/></svg>
